<?xml version="1.0" standalone="no"?><!DOCTYPE svg PUBLIC "-//W3C//DTD SVG 1.1//EN" "http://www.w3.org/Graphics/SVG/1.1/DTD/svg11.dtd"><svg t="1522906450581" class="icon" style="" viewBox="0 0 1024 1024" version="1.1" xmlns="http://www.w3.org/2000/svg" p-id="2229" xmlns:xlink="http://www.w3.org/1999/xlink" width="200" height="200"><defs><style type="text/css"></style></defs><path d="M799.103693 590.820147c1.635328 12.004454 3.00247 24.559309 4.09344 37.65463 1.090867 13.099315 0.819712 26.469888-0.819712 40.116634-1.6384 13.642752-5.184307 27.014246-10.640794 40.113562-5.460582 13.098291-14.190797 25.650176-26.199757 37.657702-15.826125 15.825408-32.19968 27.969024-49.120768 36.427674-16.921088 8.462746-34.521702 14.737613-52.805837 18.830848-18.281062 4.093235-37.11273 6.548173-56.487834 7.367782-19.376128 0.818688-39.159501 1.498112-59.354214 2.046566-3.822182 0.543334-7.36809 0.818688-10.641818 0.818688l-10.644878 0c-40.93399-1.090867-79.273779-7.094579-115.023462-18.011238-35.748659-10.916659-67.268813-26.742067-94.555443-47.480422-30.564352-22.924083-54.033818-50.209587-70.407475-81.864499-16.373555-31.653888-25.107866-66.039091-26.198733-103.149261-1.091891-29.472256 3.821158-57.30519 14.738227-83.503821 10.912973-26.194637 25.787392-50.345677 44.615987-72.451072 18.831667-22.100378 41.069056-41.882931 66.721382-59.351757 25.651302-17.463706 53.214106-31.92617 82.68759-43.386163 0.547533 0 1.090867-0.272179 1.6384-0.819712l3.273728-1.635226c0.547533-2.730189-0.13609-8.461722-2.046669-17.191526-1.910579-8.734925-3.409818-16.101683-4.500685-22.105498-2.730291-13.099315-1.910579-23.332454 2.454016-30.699213 4.369715-7.366758 11.18935-12.415795 20.466995-15.145984 6.004019-2.198016 12.280218-3.153818 18.828595-2.862182 6.55145 0.288563 12.827648 0.972186 18.831667 2.046566 13.09993 1.635226 24.968704 5.185126 35.613594 10.641408 10.640794 5.456282 20.19072 11.459994 28.653773 18.011238 8.457933 6.548173 15.826125 13.371494 22.102323 20.466074 6.275174 7.095603 11.599667 13.095219 15.965286 18.008166 34.382438 4.36951 66.58519 11.323904 96.603136 20.877517 30.019994 9.549517 57.307546 25.238835 81.867981 47.072051 12.007936 11.461018 20.466995 23.604634 25.379021 36.427674 4.91305 12.827136 7.779533 25.786266 8.595149 38.885683 0.819712 13.099315 0.275251 26.062541-1.635328 38.885683-1.931059 12.827136-3.43337 24.970752-4.504781 36.43177-1.635328 15.824384-2.45504 31.106458-2.45504 45.84407C794.738074 559.985869 796.373402 574.991667 799.103693 590.820147L799.103693 590.820147zM740.157747 721.803366c11.460506-11.46409 19.102822-23.879885 22.925107-37.250355 3.837542-13.37047 5.612032-27.561779 5.320397-42.567475-0.272179-15.009894-1.503334-30.563123-3.685069-46.663782-2.182758-16.101683-3.545907-32.062259-4.09344-47.891763-0.544461-16.372941 0.411341-32.469504 2.865357-48.299008 2.45504-15.825408 3.957248-31.107482 4.501709-45.845094 0.547533-14.733517-0.815616-28.652544-4.09344-41.751962-3.273728-13.095219-10.641818-25.102746-22.102323-36.019405-21.286707-20.189798-46.665728-35.199693-76.139213-45.025485-29.469389-9.821696-60.310016-16.64512-92.509696-20.466074-1.090867 0-2.317926-0.272179-3.685069-0.819712-1.363149-0.551526-3.954176-3.55287-7.775437-9.001984-2.182758-4.368486-5.596672-9.688678-10.233446-15.96457-4.64087-6.275891-10.233446-12.415795-16.784998-18.419507-6.548378-6.003712-14.326886-11.459994-23.32928-16.372941-9.00649-4.912845-18.967757-8.45865-29.884826-10.641408-4.365619-1.090867-8.458957-1.774387-12.280218-2.046566-3.818086-0.275251-7.911526 0.13609-12.280218 1.227981-3.818086 1.090867-5.864858 4.50048-6.140109 10.233037-0.272179 5.727437 0.139162 12.279706 1.231053 19.646464 1.094963 7.366758 2.594202 15.145984 4.500685 23.332454 1.910579 8.18647 3.138662 15.553229 3.686093 22.100378 0 1.639322-0.276275 3.277619-0.819712 4.912845-0.547533 1.639322-2.182758 3.002368-4.91305 4.093235-28.381594 8.18647-54.441165 19.922739-78.181786 35.203789-23.744819 15.282074-44.07255 33.429402-60.993638 54.439936-16.921088 21.00951-30.016922 44.069683-39.294566 69.172429-9.281741 25.106842-13.64736 51.577651-13.09993 79.410586 1.090867 32.202445 8.730214 61.80567 22.922035 88.824013 14.190797 27.013222 33.158554 50.209587 56.899277 69.584794 23.740723 19.374285 51.439718 34.520166 83.094938 45.43273 31.656243 10.916659 65.223168 16.649216 100.696576 17.19255 6.55145 1.090867 12.827648 1.090867 18.831667 0 39.29559-1.091891 75.591782-5.320192 108.883354-12.687974C687.491072 761.504563 716.144845 745.815245 740.157747 721.803366L740.157747 721.803366zM590.340403 574.447309c0 10.912563-3.00247 18.827776-9.00649 23.740723-6.004019 4.911821-13.098906 7.366758-21.285683 7.366758-9.278669 0-16.781926-2.866278-22.513664-8.594739-5.728666-5.731533-8.595149-16.508006-8.595149-32.33751l-1.6384-36.839014c0-12.008448 3.001446-22.648832 9.005466-31.92617 6.004019-9.278362 13.372109-13.919027 22.106419-13.919027 9.277645 0 16.780902 2.322944 22.513664 6.959514 5.728666 4.640666 8.594125 12.415795 8.594125 23.332454L590.340403 574.447309zM741.796147 553.162445c0 15.824384-1.910579 25.786266-5.731738 29.879501-3.822182 4.093235-8.458957 6.411059-13.915546 6.959514-6.55145 0-12.00896-3.274547-16.373555-9.825792-4.369715-6.547149-6.55145-15.553229-6.55145-27.013222l-0.819712-36.839014c0-12.551885 2.18583-22.784922 6.55145-30.699213 4.365619-7.915315 9.822106-11.872358 16.373555-11.872358 5.456486 0 9.961267 2.046566 13.507174 6.139802 3.545907 4.093235 5.321421 14.054093 5.321421 29.879501L741.796147 553.162445zM741.796147 553.162445" p-id="2230"></path></svg>